<svg version="1.1" xmlns="http://www.w3.org/2000/svg" xmlns:xlink="http://www.w3.org/1999/xlink" width="98" height="96"><g transform="translate(-191,-132)"><g data-paper-data="{&quot;isPaintingLayer&quot;:true}" fill="none" fill-rule="nonzero" stroke="none" stroke-width="none" stroke-linecap="none" stroke-linejoin="miter" stroke-miterlimit="10" stroke-dasharray="" stroke-dashoffset="0" font-family="none" font-weight="none" font-size="none" text-anchor="none" style="mix-blend-mode: normal"><path d="M289,180c0,26.50967 -21.93805,48 -49,48c-27.06195,0 -49,-21.49033 -49,-48c0,-26.50967 21.93805,-48 49,-48c27.06195,0 49,21.49033 49,48z" data-paper-data="{&quot;origPos&quot;:null}" fill="#8c8c8c" stroke="none" stroke-width="0" stroke-linecap="butt"/><path d="M285.25,179.58163c0,24.34562 -20.14718,44.08163 -45,44.08163c-24.85282,0 -45,-19.73602 -45,-44.08163c0,-24.34562 20.14718,-44.08163 45,-44.08163c24.85282,0 45,19.73602 45,44.08163z" data-paper-data="{&quot;origPos&quot;:null}" fill="#ffffff" stroke="none" stroke-width="0" stroke-linecap="butt"/><path d="M240.33334,222.66666l-1.66667,-86.33333" data-paper-data="{&quot;origPos&quot;:null}" fill="none" stroke="#000000" stroke-width="2.5" stroke-linecap="round"/><path d="M195.33333,179.33333l88.66667,0.33333" data-paper-data="{&quot;origPos&quot;:null}" fill="none" stroke="#000000" stroke-width="2.5" stroke-linecap="round"/><path d="M270.66667,210.66667l-61.66667,-61.66667" data-paper-data="{&quot;origPos&quot;:null}" fill="none" stroke="#000000" stroke-width="2.5" stroke-linecap="round"/><path d="M269,146l-58.33333,65.33333" data-paper-data="{&quot;origPos&quot;:null}" fill="none" stroke="#000000" stroke-width="2.5" stroke-linecap="round"/><path d="M246.54167,180.29252c0,3.84345 -3.18064,6.95918 -7.10417,6.95918c-3.92352,0 -7.10417,-3.11573 -7.10417,-6.95918c0,-3.84345 3.18064,-6.95918 7.10417,-6.95918c3.92352,0 7.10417,3.11573 7.10417,6.95918z" data-paper-data="{&quot;origPos&quot;:null}" fill="#8c8c8c" stroke="none" stroke-width="0" stroke-linecap="butt"/></g></g></svg>