<svg version="1.1" xmlns="http://www.w3.org/2000/svg" xmlns:xlink="http://www.w3.org/1999/xlink" width="154.44894" height="296" viewBox="0,0,154.44894,296"><g transform="translate(56.2812,-73)"><g data-paper-data="{&quot;isPaintingLayer&quot;:true}" fill="none" fill-rule="none" stroke="none" stroke-width="none" stroke-linecap="none" stroke-linejoin="none" stroke-miterlimit="10" stroke-dasharray="" stroke-dashoffset="0" font-family="none" font-weight="none" font-size="none" text-anchor="none" style="mix-blend-mode: normal"><path d="M-4,369v-296h69v296z" data-paper-data="{&quot;origPos&quot;:null}" fill="#ffffff" fill-rule="nonzero" stroke="none" stroke-width="0" stroke-linecap="butt" stroke-linejoin="miter"/><g data-paper-data="{&quot;origPos&quot;:null}" id="tail" fill-rule="evenodd"><path d="M-3.86009,287.70419c1.30454,0.76677 4.07668,2.492 0.16307,9.00953c-3.91361,6.51753 -15.16525,7.85938 -16.46979,7.85938c-5.05508,0.19169 -11.25164,0.19169 -18.10047,-2.492c-19.8942,-7.66768 -20.05727,-32.77935 -13.69765,-36.80489c6.19656,-4.02553 8.9687,11.50153 17.9374,20.89444c3.91361,4.21723 8.64257,5.75077 12.55618,6.70922c5.54429,1.15016 16.14366,-6.13415 17.61126,-5.17569z" fill="#ffab19" stroke="#001026" stroke-width="1.2" stroke-linecap="round" stroke-linejoin="round"/><path d="M-44.30076,272.17713c2.60908,5.17569 7.66416,12.45999 7.66416,12.45999c0,0 -6.03349,-1.72523 -9.4579,1.53354c-2.77214,2.492 -2.11987,6.70922 -1.79374,8.05107c-2.11987,-2.492 -4.72895,-5.94246 -6.35962,-12.65168c-1.63067,-6.70922 0,-14.7603 3.26134,-15.91044c3.26134,-0.76677 4.07668,2.10861 6.68576,6.51753z" id="detail" fill="#ffffff" stroke="none" stroke-width="1" stroke-linecap="butt" stroke-linejoin="miter"/></g><path d="M4.29328,307.64018c-2.93521,2.30031 -13.04538,10.73476 -25.92769,15.52706l-0.65227,0.19169c-0.65227,0.19169 -0.97841,1.15016 -0.65227,1.91692c2.77214,4.60061 7.82723,13.80184 -1.14147,17.0606c-8.64257,3.25876 -24.78622,-23.76982 -17.9374,-30.86243c3.09828,-2.68369 5.87042,-1.34185 7.33803,-0.57508c0.81533,0.38339 1.63067,0.38339 2.44601,0.19169c1.95681,-0.76677 5.54429,-2.30031 8.31643,-4.02553c7.01189,-4.21723 8.64257,-5.94246 11.90391,-8.81784c3.26134,-2.87538 10.76244,-9.96799 16.79592,-3.83384c5.21815,5.17569 2.28294,10.92645 -0.4892,13.22676z" data-paper-data="{&quot;origPos&quot;:null}" id="leg" fill="#ffab19" fill-rule="evenodd" stroke="#001026" stroke-width="1.2" stroke-linecap="round" stroke-linejoin="round"/><path d="M30.22097,267.76821c0.81533,0.76677 10.76244,14.5686 14.02378,11.11814c3.91361,-4.02553 9.29483,-11.88491 15.16525,-5.55907c5.87042,6.32584 -5.21815,17.0606 -9.9471,19.93598c-11.25164,5.94246 -20.38341,-5.36738 -22.34021,-8.43445c-1.95681,-3.06707 -5.38122,-8.24276 -5.38122,-13.22676c0.16307,-5.36738 5.70735,-6.70922 8.4795,-3.83384z" data-paper-data="{&quot;origPos&quot;:null}" id="arm" fill="#ffab19" fill-rule="evenodd" stroke="#001026" stroke-width="1.2" stroke-linecap="round" stroke-linejoin="round"/><g data-paper-data="{&quot;origPos&quot;:null}" id="body-and-leg" fill-rule="evenodd"><path d="M30.21759,312.23681c3.42441,3.64215 10.9255,11.11814 10.9255,11.11814c0,0 23.31862,-4.7923 23.31862,9.00953c0,8.24276 -11.74084,10.15968 -27.55836,8.43445c-0.97841,-0.19169 -1.95681,-0.57508 -2.77214,-1.34185c-3.58748,-3.64215 -13.86072,-14.37691 -20.38341,-21.8529c-9.62097,-11.11814 -17.61126,-18.40245 -17.61126,-18.40245c-13.86072,-15.91044 -2.60908,-22.61967 1.79374,-31.8209c4.07668,-7.85938 5.87042,-6.32584 15.65446,-4.02553c5.54429,0.95846 8.80563,1.53354 12.39311,1.34185c5.38122,-0.19169 4.40282,9.00953 2.93521,13.80184c0,0 -2.28294,7.09261 -4.40282,10.73476c-2.60908,4.40892 -4.56588,7.2843 -6.52269,9.00953z" id="body" fill="#ffab19" stroke="#001026" stroke-width="1.2" stroke-linecap="round" stroke-linejoin="round"/><path d="M16.51994,298.0516c0,0 -2.44601,-2.30031 -5.05508,-5.17569c-3.26134,-3.45046 -6.52269,-6.32584 -3.26134,-12.26829c2.93521,-4.60061 5.70735,-10.73476 13.04538,-5.17569c7.01189,5.17569 3.91361,9.96799 3.91361,9.96799c-3.58748,8.62615 -8.64257,12.65168 -8.64257,12.65168z" id="tummy" fill="#ffffff" stroke="none" stroke-width="1" stroke-linecap="butt" stroke-linejoin="miter"/></g><path d="M-7.93677,282.52851c3.58748,5.36738 9.13176,12.0766 2.11987,17.63568c-9.62097,6.32584 -17.61126,-12.84337 -19.24193,-19.5526c-1.4676,-5.94246 2.77214,-9.7763 6.35962,-13.03506c7.01189,-5.94246 12.88231,-11.30983 19.405,-8.43445c8.15336,3.45046 2.28294,11.11814 -1.79374,14.5686c-2.44601,2.10861 -4.89202,4.40892 -6.68576,5.75077c-0.4892,0.95846 -0.65227,2.10861 -0.16307,3.06707z" data-paper-data="{&quot;origPos&quot;:null}" id="arm" fill="#ffab19" fill-rule="evenodd" stroke="#001026" stroke-width="1.2" stroke-linecap="round" stroke-linejoin="round"/><g data-paper-data="{&quot;origPos&quot;:null}" id="head" fill-rule="evenodd"><path d="M43.42941,153.32801c0.4892,-0.38339 1.30454,-0.19169 1.4676,0.57508l4.23975,20.51106c0,0 10.4363,9.00953 13.53458,15.33537c5.21815,10.54307 5.38122,19.16921 5.38122,19.16921c0,0 11.57777,4.02553 13.53458,14.95199c1.95681,10.92645 -5.21815,31.6292 -35.8748,38.72181c-30.65664,7.09261 -55.2798,-2.68369 -66.85757,-24.53659c-11.57777,-21.8529 6.68576,-47.92303 5.70735,-46.38949l-3.42441,-34.31289c-0.16307,-0.76677 0.65227,-1.34185 1.30454,-0.95846l19.73114,15.14368c0,0 7.33803,-3.25876 15.00219,-3.64215c4.56588,-0.38339 8.4795,0 12.23004,0.76677z" fill="#ffab19" stroke="#001026" stroke-width="1.2" stroke-linecap="butt" stroke-linejoin="miter"/><path d="M67.56337,209.6855c0,0 11.25164,3.45046 13.20845,14.37691c1.95681,10.92645 -5.87042,30.67074 -36.20093,37.57165c-39.46227,9.58461 -58.21501,-18.01906 -47.2895,-38.33842c10.9255,-20.51106 29.67824,-3.06707 43.37589,-4.21723c11.74084,-0.95846 13.04538,-13.03506 26.90609,-9.39292z" id="face" fill="#ffffff" stroke="none" stroke-width="1" stroke-linecap="butt" stroke-linejoin="miter"/><path d="M16.19719,230.19656c0,-0.76677 0.65227,-1.34185 1.30454,-1.15016c3.09828,1.34185 11.90391,4.40892 21.68794,5.17569c8.80563,0.57508 14.02378,0 16.46979,-0.57508c0.81533,-0.19169 1.4676,0.76677 1.14147,1.72523c-1.4676,5.17569 -7.66416,19.5526 -24.78622,18.40245c-14.83912,-1.91692 -16.30673,-14.18522 -15.81752,-23.57813z" id="mouth" fill="#ffffff" stroke="#001026" stroke-width="1.2" stroke-linecap="round" stroke-linejoin="round"/><path d="M97.56774,211.79411c-7.66416,7.2843 -19.405,7.47599 -19.405,7.47599" id="whisker" fill="none" stroke="#001026" stroke-width="1.2" stroke-linecap="round" stroke-linejoin="round"/><path d="M95.44787,233.26363c-10.27324,0.95846 -16.63286,-2.68369 -16.63286,-2.68369" id="whisker" fill="none" stroke="#001026" stroke-width="1.2" stroke-linecap="round" stroke-linejoin="round"/><path d="M40.005,214.09441c3.42441,0 7.01189,0.38339 7.17496,1.72523c0.16307,2.68369 -2.28294,8.05107 -4.89202,8.24276c-2.93521,0.38339 -9.78403,-4.40892 -9.78403,-7.47599c-0.16307,-2.30031 4.23975,-2.492 7.50109,-2.492z" id="nose" fill="#001026" stroke="#001026" stroke-width="1.2" stroke-linecap="round" stroke-linejoin="round"/><path d="M-33.37526,211.21903c0,0 14.02378,5.36738 19.73114,11.30983" id="whisker" fill="none" stroke="#001026" stroke-width="1.2" stroke-linecap="round" stroke-linejoin="round"/><path d="M-13.15492,229.2381c-7.01189,3.25876 -19.07887,1.15016 -19.07887,1.15016" id="whisker" fill="none" stroke="#001026" stroke-width="1.2" stroke-linecap="round" stroke-linejoin="round"/><g id="eye"><path d="M59.24694,191.66644c4.72895,8.62615 4.89202,18.40245 0.32614,21.8529c-4.56588,3.45046 -12.06698,-0.57508 -16.959,-9.20122c-4.72895,-8.62615 -4.89202,-18.40245 -0.32614,-21.8529c4.56588,-3.64215 12.23004,0.57508 16.959,9.20122z" id="pupil" fill="#ffffff" stroke="#001026" stroke-width="1.2" stroke-linecap="round" stroke-linejoin="round"/><path d="M58.59467,202.59289c0,2.10861 -1.30454,3.83384 -2.93521,3.83384c-1.63067,0 -2.93521,-1.72523 -2.93521,-3.83384c0,-2.10861 1.30454,-3.83384 2.93521,-3.83384c1.63067,0 2.93521,1.72523 2.93521,3.83384" id="pupil" fill="#001026" stroke="none" stroke-width="1" stroke-linecap="butt" stroke-linejoin="miter"/></g><g id="eye"><path d="M18.80626,197.03381c4.89202,8.43445 4.56588,18.78583 0.16307,22.42798c-5.38122,3.64215 -12.55618,0.95846 -17.4482,-7.47599c-5.05508,-8.43445 -5.38122,-19.36091 -0.32614,-23.57813c5.05508,-4.40892 12.71925,0.19169 17.61126,8.62615z" fill="#ffffff" stroke="#001026" stroke-width="1.2" stroke-linecap="round" stroke-linejoin="round"/><path d="M17.82786,208.15196c0,2.10861 -1.30454,3.83384 -2.93521,3.83384c-1.63067,0 -2.93521,-1.72523 -2.93521,-3.83384c0,-2.10861 1.30454,-3.83384 2.93521,-3.83384c1.63067,0.19169 2.93521,1.72523 2.93521,3.83384" id="pupil" fill="#001026" stroke="none" stroke-width="1" stroke-linecap="butt" stroke-linejoin="miter"/></g></g><path d="M35.53205,171.70101c0.12583,5.18494 -8.1524,9.66923 -18.48996,10.01592c-10.33756,0.34669 -18.81981,-3.57548 -18.94565,-8.76042c-0.12583,-5.18494 8.1524,-9.66923 18.48996,-10.01592c10.33756,-0.34669 18.81981,3.57548 18.94565,8.76042z" data-paper-data="{&quot;origRot&quot;:0,&quot;origPos&quot;:null}" fill="#ff0000" fill-rule="nonzero" stroke="#000000" stroke-width="0.5" stroke-linecap="butt" stroke-linejoin="miter"/><path d="M23.51491,156.65202c0.62752,7.74554 -2.86981,14.47303 -7.8115,15.02629c-4.94169,0.55325 -9.45642,-5.27724 -10.08393,-13.02278c-0.62752,-7.74554 2.86981,-14.47303 7.8115,-15.02629c4.94169,-0.55325 9.45642,5.27724 10.08393,13.02278z" data-paper-data="{&quot;origRot&quot;:0,&quot;origPos&quot;:null}" fill="#ff0000" fill-rule="nonzero" stroke="#000000" stroke-width="0" stroke-linecap="butt" stroke-linejoin="miter"/><path d="M6.2293,168.07616l-1.93698,-25.04702c0.09223,-0.13743 0.11475,-0.29628 0.11475,-0.29628c0.02638,-0.18605 0.05793,-0.35952 0.09489,-0.52329c0.08809,-0.03782 0.16458,-0.10398 0.22148,-0.18908l0.30434,-0.4472c0.1832,-0.2661 0.37025,-0.5266 0.55765,-0.78624c0.50066,-0.45324 1.08905,-1.07684 1.27244,-1.50801l0.16402,-0.16918l16.13706,-1.72452c-0.01281,0.05196 -0.01967,0.10688 -0.01967,0.16369c0,0.20708 0.09122,0.38912 0.22899,0.49361l-0.03619,0.03142c0.2558,0.15035 0.64879,0.4601 0.98523,0.58644c0.03036,0.15386 0.11217,0.28454 0.22298,0.3656l2.07805,26.87114z" data-paper-data="{&quot;origPos&quot;:null,&quot;origRot&quot;:0}" fill="#ff0000" fill-rule="nonzero" stroke="none" stroke-width="0" stroke-linecap="butt" stroke-linejoin="miter"/><path d="M24.40765,139.32729c1.24579,3.19612 -2.18728,7.1591 -7.66799,8.85157c-5.4807,1.69247 -10.93359,0.47352 -12.17938,-2.7226c-0.59108,-1.51644 -0.12888,-3.20552 1.10558,-4.74281c0.31965,-0.29559 0.6636,-0.65086 0.90956,-0.97574c1.38619,-1.29701 3.33667,-2.41776 5.65285,-3.13301c4.38702,-1.35473 8.75622,-0.84407 10.9642,1.05285c0.02633,0.0348 0.05602,0.0656 0.08845,0.0916l-0.03423,0.03142c0.08103,0.05035 0.17662,0.11859 0.27988,0.19183c0.38652,0.40055 0.6856,0.85339 0.88108,1.35491z" data-paper-data="{&quot;origRot&quot;:0,&quot;origPos&quot;:null}" fill="#ff0000" fill-rule="nonzero" stroke="#000000" stroke-width="0.5" stroke-linecap="butt" stroke-linejoin="miter"/><path d="M26.23968,163.77704c0,0 -0.35412,1.2599 -0.85762,1.93032c-0.49218,0.65536 -1.02999,1.14778 -1.7398,1.40854c-0.09062,0.03329 0.01747,-0.11037 0.01747,-0.11037c0,0 -1.1186,0.41896 -1.83456,0.56188c-1.00544,0.20071 -2.57632,0.31862 -2.57632,0.31862c0,0 -0.13104,-0.18467 -0.16164,-0.17763c-0.73974,0.17014 -1.25676,0.60467 -2.00823,0.67371c-0.80957,0.07438 -1.99133,-0.30041 -1.99133,-0.30041c0,0 -1.07291,0.31119 -1.65565,0.21755c-0.85323,-0.13709 -1.1843,-0.84737 -2.02996,-0.6562c-0.25057,0.05665 -0.1427,0.14515 -0.1427,0.14515l-5.24312,-2.44583" data-paper-data="{&quot;origPos&quot;:null}" fill="none" fill-rule="nonzero" stroke="#000000" stroke-width="0.5" stroke-linecap="round" stroke-linejoin="miter"/><path d="M23.82172,266.35179c0,1.93724 -1.56495,3.50768 -3.49541,3.50768c-1.93046,0 -3.49541,-1.57044 -3.49541,-3.50768c0,-1.93724 1.56495,-3.50768 3.49541,-3.50768c1.93046,0 3.49541,1.57044 3.49541,3.50768z" data-paper-data="{&quot;origPos&quot;:null}" fill="#ff0000" fill-rule="nonzero" stroke="#000000" stroke-width="0" stroke-linecap="butt" stroke-linejoin="miter"/><path d="M22.32773,263.69506l3.41423,-1.85242l0.52527,7.40966l-2.88896,-1.54367" data-paper-data="{&quot;origPos&quot;:null}" fill="#ff0000" fill-rule="nonzero" stroke="#ff0000" stroke-width="0.5" stroke-linecap="round" stroke-linejoin="miter"/><path d="M17.63133,268.41282l-3.49797,1.54438l-0.61729,-7.10417l3.9095,2.16214" data-paper-data="{&quot;origPos&quot;:null}" fill="#ff0000" fill-rule="nonzero" stroke="#ff0000" stroke-width="0.5" stroke-linecap="round" stroke-linejoin="miter"/></g></g></svg>